<svg width="10" height="26" viewBox="0 0 10 26" fill="none" xmlns="http://www.w3.org/2000/svg">
<path fill-rule="evenodd" clip-rule="evenodd" d="M2.75 3.73232C2.75 4.14437 3.086 4.47878 3.5 4.47878C3.914 4.47878 4.25 4.14437 4.25 3.73232C4.25 3.32027 3.914 2.98586 3.5 2.98586C3.086 2.98586 2.75 3.32027 2.75 3.73232ZM0 4.97643C0 2.22778 2.23833 0 5 0C7.76167 0 10 2.22778 10 4.97643C10 7.72507 7.76167 9.95286 5 9.95286C2.23833 9.95286 0 7.72507 0 4.97643ZM5 25.9953L4 23.0094V10.9481C4.326 11.0029 4.658 11.0377 5 11.0377C5.342 11.0377 5.674 11.0029 6 10.9481V23.0094L5 25.9953Z" fill="#DA2119"/>
</svg>
